Coordinates
version=1
nRows=32
nColumns=22
inDegrees=yes

Units are S.I. units (second, meters, Newtons, ...)
If the header above contains a line with 'inDegrees', this indicates whether rotational values are in degrees (yes) or radians (no).

endheader
time	pelvis_tilt	pelvis_list	pelvis_rotation	pelvis_tx	pelvis_ty	pelvis_tz	hip_flexion_r	hip_adduction_r	hip_rotation_r	knee_angle_r	ankle_angle_r	subtalar_angle_r	hip_flexion_l	hip_adduction_l	hip_rotation_l	knee_angle_l	ankle_angle_l	subtalar_angle_l	lumbar_extension	lumbar_bending	lumbar_rotation
      1.68000000	     -0.89053696	     -0.47948841	    -28.98674705	     -0.93612057	      0.90294676	     -0.43441895	     11.28967725	     -2.86849453	      6.20525654	    -30.42174490	     17.15984601	     -3.23539926	      2.79664074	      1.55483203	    -12.52162804	    -18.51720218	     18.32088403	     -4.85395320	     -8.25907605	     -2.22764501	      5.84026930
      1.69000000	     -0.81695998	     -0.52283750	    -28.99504376	     -0.93550346	      0.90312242	     -0.43525698	     12.01735434	     -2.82618224	      6.17105021	    -31.71553492	     16.95463182	     -3.57008648	      2.64998810	      1.64445209	    -12.47946628	    -18.43061758	     18.26592320	     -4.90191179	     -8.51585739	     -2.21670149	      5.70147358
      1.70000000	     -0.76031045	     -0.57889138	    -28.95847979	     -0.93478682	      0.90328160	     -0.43607605	     12.70034866	     -2.79061821	      6.01528227	    -32.86962329	     16.77492972	     -4.00552612	      2.51709485	      1.70750485	    -12.41967340	    -18.36167122	     18.25261781	     -4.96503962	     -8.75375454	     -2.17598985	      5.52178687
      1.71000000	     -0.69260515	     -0.65252588	    -28.88823084	     -0.93394689	      0.90346906	     -0.43685947	     13.30194375	     -2.77582277	      5.74680346	    -33.86098477	     16.65260430	     -4.46436198	      2.35329977	      1.75712598	    -12.34509642	    -18.28612393	     18.24264300	     -5.02644255	     -8.99802265	     -2.11506802	      5.31924130
      1.72000000	     -0.61827980	     -0.73997477	    -28.79276416	     -0.93301852	      0.90368627	     -0.43759939	     13.82687612	     -2.78034693	      5.37844489	    -34.66865893	     16.57260838	     -4.86295694	      2.16430739	      1.79426482	    -12.26283347	    -18.19905607	     18.24187955	     -5.07004698	     -9.25048483	     -2.04147439	      5.10526990
      1.73000000	     -0.55009708	     -0.83605619	    -28.67678300	     -0.93199378	      0.90390952	     -0.43830237	     14.29084370	     -2.80132846	      4.92379667	    -35.29183487	     16.55101329	     -5.24121274	      1.96849455	      1.81821093	    -12.16629565	    -18.10881906	     18.23909845	     -5.10645192	     -9.48868917	     -1.94707720	      4.88686431
      1.74000000	     -0.49078315	     -0.93975548	    -28.54251685	     -0.93089107	      0.90413869	     -0.43895527	     14.69760946	     -2.83373277	      4.39730035	    -35.72597429	     16.57218277	     -5.59933129	      1.76762634	      1.82624071	    -12.05955898	    -18.01079288	     18.23816011	     -5.13483752	     -9.71123002	     -1.83777711	      4.66701127
      1.75000000	     -0.44193778	     -1.04856347	    -28.39785966	     -0.92971812	      0.90437045	     -0.43955992	     15.05278467	     -2.87276320	      3.81764569	    -35.97424679	     16.62007531	     -5.94156946	      1.56737055	      1.82116464	    -11.94876122	    -17.91020094	     18.23964566	     -5.15556849	     -9.91605445	     -1.71321412	      4.44711142
      1.76000000	     -0.39629150	     -1.15195539	    -28.25300172	     -0.92852844	      0.90459435	     -0.44010956	     15.37732535	     -2.92263235	      3.21173225	    -36.07229814	     16.66521944	     -6.19887674	      1.38346314	      1.80860354	    -11.87086794	    -17.83616066	     18.24926019	     -5.16202472	    -10.11464860	     -1.59313576	      4.22357837
      1.77000000	     -0.37442922	     -1.26735512	    -28.09261266	     -0.92725311	      0.90481313	     -0.44062012	     15.65668064	     -2.96100473	      2.55630721	    -35.98875864	     16.72934296	     -6.46939161	      1.20396380	      1.77502689	    -11.75095299	    -17.74799965	     18.24893187	     -5.16512068	    -10.28489762	     -1.44115624	      4.02277764
      1.78000000	     -0.36675470	     -1.39189791	    -27.94570154	     -0.92594493	      0.90503257	     -0.44100610	     15.89988887	     -2.97441587	      1.90097471	    -35.75060091	     16.78797850	     -6.74634020	      1.02266661	      1.72033503	    -11.62615020	    -17.65261684	     18.25411494	     -5.16298872	    -10.43444598	     -1.28331509	      3.83805310
      1.79000000	     -0.36784254	     -1.51315407	    -27.80740877	     -0.92459544	      0.90524476	     -0.44130699	     16.10982926	     -2.97608445	      1.26068442	    -35.36521523	     16.82881738	     -7.00384306	      0.84853886	      1.65918437	    -11.51630117	    -17.56219897	     18.26782593	     -5.15225812	    -10.56675096	     -1.12510229	      3.67972757
      1.80000000	     -0.37520158	     -1.63651750	    -27.68675701	     -0.92324733	      0.90543433	     -0.44150189	     16.31120946	     -2.95727612	      0.63541206	    -34.88888438	     16.85316846	     -7.20176308	      0.68505636	      1.58465421	    -11.42583705	    -17.49190136	     18.27945898	     -5.13551858	    -10.69312172	     -0.96951344	      3.56047719
      1.81000000	     -0.38801162	     -1.76359577	    -27.58403481	     -0.92187302	      0.90561328	     -0.44156600	     16.48860880	     -2.90915485	      0.04598016	    -34.30613076	     16.85835031	     -7.36007048	      0.51226438	      1.50038858	    -11.33272227	    -17.41101969	     18.30518119	     -5.11074227	    -10.80880006	     -0.81448680	      3.46029123
      1.82000000	     -0.40775275	     -1.89100407	    -27.49946982	     -0.92049132	      0.90576895	     -0.44149753	     16.65272713	     -2.83291132	     -0.50516367	    -33.63444567	     16.84711176	     -7.45650471	      0.34792245	      1.40410947	    -11.25276497	    -17.34579822	     18.33160215	     -5.08538838	    -10.91396880	     -0.66769647	      3.39660250
      1.83000000	     -0.42714461	     -2.01805190	    -27.43757907	     -0.91909979	      0.90590543	     -0.44129975	     16.80210071	     -2.72798604	     -1.00166951	    -32.88711307	     16.81432563	     -7.49492043	      0.17469301	      1.30471367	    -11.18376273	    -17.27681670	     18.37772000	     -5.05649553	    -11.01564751	     -0.52956322	      3.35711681
      1.84000000	     -0.45654895	     -2.14121476	    -27.40147487	     -0.91773146	      0.90600150	     -0.44096065	     16.95495515	     -2.58942271	     -1.43499555	    -32.07665110	     16.76482824	     -7.46216943	      0.01506244	      1.19551880	    -11.13234145	    -17.22227620	     18.42649946	     -5.03209820	    -11.10482793	     -0.40411334	      3.35564936
      1.85000000	     -0.47900999	     -2.26717976	    -27.37941681	     -0.91634587	      0.90608071	     -0.44053585	     17.08887877	     -2.43130591	     -1.83340734	    -31.20684317	     16.68206547	     -7.32773742	     -0.15815640	      1.08375112	    -11.10640101	    -17.16673558	     18.50793256	     -4.99911508	    -11.20420143	     -0.27782962	      3.36307299
      1.86000000	     -0.53777504	     -2.37915757	    -27.38594021	     -0.91504061	      0.90607414	     -0.43998260	     17.26000149	     -2.22534658	     -2.12587847	    -30.28084547	     16.58283161	     -7.15171751	     -0.26917965	      0.95686781	    -11.08775720	    -17.15472077	     18.56738458	     -4.98207549	    -11.26667212	     -0.16532534	      3.42348889
      1.87000000	     -0.59997603	     -2.48770090	    -27.40628255	     -0.91373383	      0.90602672	     -0.43936158	     17.42808097	     -2.00291359	     -2.38267824	    -29.30715217	     16.44840712	     -6.89296058	     -0.37567255	      0.82701099	    -11.09743376	    -17.14861428	     18.66121680	     -4.95650414	    -11.32875123	     -0.05106157	      3.49118077
      1.88000000	     -0.66428407	     -2.59010489	    -27.43872264	     -0.91239967	      0.90593840	     -0.43865629	     17.59319459	     -1.77125814	     -2.62544950	    -28.29543646	     16.27899482	     -6.46959349	     -0.49236586	      0.69681854	    -11.15561200	    -17.12277554	     18.78597177	     -4.90529122	    -11.38320879	      0.05829932	      3.54582234
      1.89000000	     -0.73860341	     -2.66529658	    -27.48418350	     -0.91112031	      0.90578120	     -0.43788863	     17.77303863	     -1.53206397	     -2.78018763	    -27.23945087	     16.12365862	     -5.93631454	     -0.57407976	      0.58674023	    -11.17051222	    -17.12010933	     18.88447976	     -4.83027039	    -11.42552604	      0.13825638	      3.64192224
      1.90000000	     -0.83025303	     -2.73354203	    -27.53340146	     -0.90984320	      0.90556267	     -0.43704444	     17.95641636	     -1.27319894	     -2.89787323	    -26.13873907	     15.93469538	     -5.53204067	     -0.62557868	      0.46194381	    -11.23199406	    -17.14287094	     19.00592282	     -4.76735765	    -11.44915990	      0.21923967	      3.72042057
      1.91000000	     -0.91401122	     -2.79420969	    -27.57892751	     -0.90853139	      0.90531523	     -0.43613775	     18.11603379	     -1.01586495	     -2.99676668	    -24.99833235	     15.74128264	     -5.09814301	     -0.68544179	      0.34358551	    -11.29975378	    -17.16574849	     19.13020509	     -4.68584786	    -11.47816653	      0.28927614	      3.79148517
      1.92000000	     -1.00705446	     -2.84426807	    -27.62320410	     -0.90720159	      0.90501700	     -0.43515976	     18.27286916	     -0.75304416	     -3.07251348	    -23.82690497	     15.52715496	     -4.82193288	     -0.72632408	      0.22306014	    -11.37877834	    -17.20529486	     19.24518718	     -4.63713645	    -11.49203503	      0.35201572	      3.86985196
      1.93000000	     -1.03511184	     -2.90396830	    -27.64109461	     -0.90574048	      0.90477448	     -0.43411115	     18.33029414	     -0.52108445	     -3.19133583	    -22.62358078	     15.38368014	     -4.19498436	     -0.87310502	      0.12715818	    -11.43989594	    -17.18807549	     19.38551925	     -4.48104561	    -11.56868659	      0.39398314	      3.89575764
      1.94000000	     -1.09736555	     -2.95230069	    -27.66124703	     -0.90426932	      0.90444377	     -0.43298480	     18.41788057	     -0.27445539	     -3.29255465	    -21.41579777	     15.19986571	     -3.90848199	     -0.96334795	      0.01435168	    -11.51715686	    -17.21522525	     19.52595886	     -4.41694728	    -11.60356874	      0.44123034	      3.95255100
      1.95000000	     -1.06716409	     -3.01561274	    -27.65051269	     -0.90262664	      0.90421312	     -0.43179891	     18.38646595	     -0.07794279	     -3.47444348	    -20.21356674	     15.10214583	     -3.30405614	     -1.20169404	     -0.06081280	    -11.57922687	    -17.16130459	     19.66219223	     -4.24331873	    -11.72927072	      0.46310613	      3.94170878
      1.96000000	     -1.06481343	     -3.07686329	    -27.63621738	     -0.90092718	      0.90390661	     -0.43053262	     18.38175419	      0.12803796	     -3.68440171	    -19.04416943	     14.96484683	     -2.95525946	     -1.40817372	     -0.15749773	    -11.67040596	    -17.12831472	     19.82945843	     -4.14274939	    -11.81800696	      0.49967341	      3.93546660
      1.97000000	     -1.02735282	     -3.14337056	    -27.60139128	     -0.89916979	      0.90361015	     -0.42921236	     18.33242631	      0.31585435	     -3.92893977	    -17.90353543	     14.85274500	     -2.63179832	     -1.64949326	     -0.24172276	    -11.70479358	    -17.10948783	     19.99138007	     -4.03791015	    -11.94845631	      0.51981958	      3.95631741
      1.98000000	     -0.92869616	     -3.21794762	    -27.55571521	     -0.89722173	      0.90336592	     -0.42779871	     18.22735577	      0.46305702	     -4.28024780	    -16.84607573	     14.77880538	     -2.20081445	     -2.01344709	     -0.30051482	    -11.77910180	    -17.00059807	     20.14332714	     -3.88548065	    -12.12295974	      0.52673996	      3.90632896
      1.99000000	     -0.84141549	     -3.28212729	    -27.49924852	     -0.89525059	      0.90304934	     -0.42634519	     18.14466142	      0.60415024	     -4.63597500	    -15.85335356	     14.70375155	     -1.90585136	     -2.33155352	     -0.35861069	    -11.80022263	    -16.95480744	     20.32107775	     -3.76890936	    -12.28500669	      0.52802819	      3.90262437
